PathFileType	4	(X/Y/Z)	C:\Users\°ÂÌØÂü\Desktop\20210112\bx_n_5_902-Unnamed.trc
DataRate	CameraRate	NumFrames	NumMarkers	Units	OrigDataRate	OrigDataStartFrame	OrigNumFrames
50.00	50.00	       8	0	mm	50.00	69	       545
Frame#	Time	
		

69	1.360	-456.72354	270.87836	1360.40454	-723.74738	240.61478	1043.63306	-814.75092	289.22192	870.99017	-703.10815	-4.27394	810.75287	-707.72546	224.22383	797.32159	-800.65253	279.66556	736.96088	-812.40442	255.83385	633.55933	-764.96075	147.33727	571.97351	-802.21173	250.57228	568.60303	-724.55890	18.23042	526.07654	-741.13757	208.98277	537.45068	-828.37701	262.26276	490.84006	-795.20258	35.43933	173.09708	-911.36890	93.02977	1084.42407	-648.32916	-67.38456	162.34735	-719.05267	157.30936	220.62119	-772.20959	230.46873	202.12656	-605.62067	-72.39221	158.63789	-882.53345	296.27420	144.73798	-675.38043	52.55553	160.67853	-600.71802	29.07358	166.63972	-548.96997	-22.87986	163.15645	-518.14630	-72.81177	143.62077	-676.26123	173.97423	161.87845	-593.04663	218.55482	174.20935	-623.53143	306.63123	158.78493	-528.24170	303.99408	146.55949	-211.48036	106.13229	1555.84180	-720.72473	-4.70157	1023.26434	-524.71442	95.64259	1162.05383	-798.46210	181.76479	181.90506	-556.93640	253.20398	164.62106	-660.24042	298.68365	156.54518	-443.70343	-77.57687	1347.17285				-808.77985	-47.11871	480.33224	-762.00470	-22.80325	205.02274	-875.80023	-78.62018	141.04199	-789.85571	-73.63367	870.51965	-789.87445	-61.29245	753.26898	-782.75037	-34.47238	614.35248	-781.51068	-31.80845	565.86395	-725.31152	67.75886	218.45712	-763.58514	75.86134	572.13043	
70	1.380	-449.80267	270.14185	1347.41406				-818.37817	289.07709	870.98718	-707.31769	-4.88089	810.60168	-710.94464	223.80769	797.13080	-803.00171	279.86087	736.72876	-814.64514	255.59470	632.69891	-767.45764	147.11736	572.13660	-803.94470	250.48170	568.60376	-726.62250	17.90900	526.17596	-742.79608	209.13396	538.04852	-829.71985	262.01019	489.93356	-795.26996	35.55210	172.94292	-913.59399	92.40799	1085.12756	-648.12732	-67.40277	161.96823	-719.05267	157.30936	220.62119	-772.19440	230.80203	201.90915	-605.63354	-72.53706	158.29071	-882.71552	296.04565	144.57155	-675.20148	52.79475	160.82875	-600.80457	29.04802	166.54672	-548.97833	-22.84209	163.09579	-518.16351	-72.91988	143.50929	-676.24866	174.04848	161.93681	-593.10645	218.48520	174.18839	-623.40875	306.67392	158.78110	-528.10205	304.04691	146.46024	-202.02144	104.70812	1537.40100	-724.93762	-5.67383	1020.67297	-524.69061	95.15831	1150.83240	-798.50732	181.90240	181.60826	-556.94989	253.24252	164.43997	-660.21771	298.74017	156.52118	-437.31311	-77.72535	1333.30505	-727.17950	239.01505	1041.82458	-810.72760	-47.14935	480.10309	-762.28448	-22.79270	204.98447	-875.80023	-78.62018	141.04199	-794.11530	-74.11477	869.86151	-793.29651	-62.25005	752.91980	-785.59204	-34.78238	613.71252	-783.99438	-32.40852	565.44415	-725.87024	67.10942	218.30658	-765.91394	75.42339	571.56317	
71	1.400	-442.67487	269.20926	1333.60583				-820.92047	288.68771	870.55225	-711.32233	-6.21610	810.09741	-714.34265	223.05789	796.61646	-805.02618	280.05560	735.99231	-816.54681	255.41223	632.40955	-769.64832	146.46806	571.91351	-806.08990	250.29890	568.03461	-729.00134	17.28690	526.60559	-744.83832	208.33760	537.20776	-831.26514	262.24127	489.60706	-795.26996	35.55210	172.94292	-915.86658	92.86793	1086.25830	-648.09253	-67.62420	162.33604	-719.11047	157.35889	220.71431	-772.19519	230.80313	201.72404	-605.82404	-72.57368	158.30293	-882.63696	296.06921	144.69737	-675.09845	52.78709	160.97284	-600.78247	29.10601	166.90680	-549.04938	-22.83200	163.05301	-517.89233	-73.16718	143.60152	-676.36255	174.28511	161.70105	-593.30969	218.49948	174.05412	-623.29407	306.44751	158.73199	-528.07947	304.08771	146.57243	-193.12825	104.15456	1519.21704				-524.31927	94.48477	1140.10303	-798.72626	182.03825	181.32619	-557.05798	253.03201	164.36671	-660.12329	298.69617	156.64304	-430.60858	-77.50092	1319.01331	-730.12854	238.22055	1040.69775	-812.95892	-47.06049	479.24518	-762.74176	-22.33564	203.98109	-875.78961	-78.57214	141.09050	-798.32684	-75.19262	869.40747	-796.66516	-62.52120	752.41840	-788.62170	-35.46907	613.60675	-786.64789	-32.70018	565.46918	-725.90277	67.51466	218.68654	-767.76453	75.13903	570.80841	
72	1.420	-436.05798	268.65485	1320.23071				-824.28070	287.41818	869.83063	-714.60175	-5.67236	810.34491				-807.70544	279.45459	735.83081	-819.30261	255.42331	632.38733	-772.26740	146.98036	571.27777	-807.88446	250.25005	567.70996	-730.77637	16.82590	526.40564	-746.76593	208.50922	537.29663	-832.59857	261.97659	489.12720	-795.26166	35.44651	173.06923				-648.23651	-67.69431	161.91472	-719.35797	157.51167	220.78053	-772.29437	230.67084	201.62343	-605.81586	-72.57674	158.11427	-882.65930	296.16309	144.73979	-675.13403	52.56870	161.05305	-600.30634	28.54033	167.12132	-549.12830	-22.65963	162.88242	-517.93781	-72.99405	143.68600	-676.32837	174.34641	161.78163	-593.40155	218.49861	173.86996	-623.28351	306.46295	158.82068	-528.17188	304.00797	146.60132	-184.43080	103.51643	1501.00073				-523.27161	93.55528	1129.11145	-798.72626	182.03825	181.32619	-556.86023	252.68256	164.22324	-660.06079	298.59717	156.63361	-424.23917	-77.74264	1304.96692	-732.80811	237.36087	1038.72498	-814.84045	-47.49967	479.09830	-762.69653	-22.87195	204.67490	-875.80023	-78.62018	141.04199	-802.42450	-74.98313	868.31146	-800.11066	-63.12104	751.69330	-790.91077	-35.60389	613.22968	-788.90222	-33.20354	565.05035	-726.34155	66.89617	218.53827	
73	1.440	-430.04904	267.97415	1306.22461	-920.04749	92.52360	1088.96765	-827.58026	286.66129	869.35645	-717.69965	-7.27771	809.92407				-810.08203	279.08612	735.87781	-821.04785	255.27576	631.88580	-774.21405	146.43718	570.87225	-809.78082	249.71426	567.29242	-732.83014	16.55357	526.45953	-748.56384	207.93556	536.92041	-834.07672	262.18021	488.43417	-795.13428	35.11097	172.87041				-648.26434	-67.94730	161.81496	-719.85083	157.19788	220.83667	-772.38965	230.73775	201.46121	-605.72284	-72.89374	158.07939	-882.53552	296.19693	144.70921	-675.34479	52.26608	161.00984	-600.53967	28.61613	166.94749	-548.89783	-22.59829	163.03627	-518.04498	-72.85799	143.66159	-676.59906	174.47112	162.01755	-593.48505	218.25523	173.68602	-623.34326	306.18692	158.91345	-528.09973	303.87607	146.36261	-176.38333	102.71516	1483.02478							-798.77533	182.07391	181.33023	-556.76770	252.44392	164.21223	-660.06940	298.67487	156.52930				-735.63367	236.84380	1036.72595	-816.87061	-47.51544	478.46930	-762.99823	-23.04404	204.49200	-875.81323	-78.65593	141.05547	-806.22986	-74.60286	866.42175	-803.30939	-64.07666	751.23822	-793.45807	-35.63454	612.50513	-791.19525	-33.13317	564.36267	-726.44452	66.30741	218.02452	
74	1.460	-424.01068	267.57727	1292.71289	-922.32324	90.52425	1090.28223	-831.16779	286.27328	869.38855	-720.65759	-7.84264	809.39160	-413.39377	-77.44195	1276.33484	-813.33423	278.70920	735.12732	-822.73022	254.42514	631.03235	-776.20642	145.86441	571.20410	-811.32550	249.91985	567.23401	-734.69336	16.33641	526.18695	-750.33350	207.85210	537.10754	-834.89899	262.15860	488.29245	-795.04779	35.29869	172.81924				-648.37823	-68.21633	161.38388	-720.26764	157.27531	221.06528	-772.50220	230.79324	201.32980	-605.62518	-72.66845	157.70776	-882.50610	296.15848	144.67023	-675.14856	52.34661	161.39670	-600.38202	28.52157	167.18272	-548.87317	-22.66041	162.57977	-518.22632	-72.96680	143.68901	-676.71149	174.40439	162.16794	-594.03571	217.83090	173.62869	-623.26050	306.03226	159.05957	-528.03912	304.10913	146.83545	-168.36160	102.00359	1464.80847							-798.97308	182.26024	181.22325	-556.85156	252.45174	164.10420	-659.93140	298.57111	156.71539				-737.85144	236.31091	1034.79333	-818.38354	-48.42735	478.29611	-762.99664	-23.00914	204.31549	-875.85034	-78.68372	141.27127	-809.03278	-76.00070	866.70020	-806.02307	-64.93861	750.79669	-795.46527	-35.90530	612.39148	-792.95624	-33.47166	564.29474	-726.61786	66.26357	218.39546	
75	1.480	-418.67953	266.04623	1277.97168	-923.26575	90.06635	1090.87488	-834.25818	286.00549	869.21503	-723.13666	-8.45820	808.77899	-407.91312	-77.13802	1262.29065	-815.68591	278.73465	734.93396	-824.50659	254.97275	630.91486	-778.02185	145.55974	570.95734	-812.36676	250.09677	567.16833	-736.33380	15.97892	526.37726	-751.32690	207.43898	537.12994	-835.61481	262.79248	488.22147	-795.03180	34.79251	173.08720				-648.32666	-68.24435	161.08141	-720.56903	157.83562	220.77191	-772.37970	231.06796	201.48311	-605.24658	-72.96118	157.87924	-882.66095	296.05588	144.61104	-675.32758	52.10737	161.24651	-600.45020	28.54659	167.07813	-548.62506	-22.32835	162.73544	-518.16272	-72.94269	143.62993	-676.82440	174.31538	162.28836	-594.02362	217.75946	173.48538	-623.16315	306.06604	158.90221	-528.00641	304.03290	146.44913	-162.13330	101.50802	1446.46777							-799.00452	182.44940	181.39690	-557.12915	252.29118	164.16397	-659.89490	298.55515	156.86037				-740.18256	236.30629	1033.25684	-819.57452	-48.80941	477.58658	-762.88708	-23.19782	204.49838	-875.78961	-78.57214	141.09050	-811.18079	-77.11185	866.51215	-808.65350	-65.90508	750.16290	-797.43597	-37.03352	612.22675	-795.10248	-34.06878	563.95251	-726.77551	65.61272	218.36577	
76	1.500	-413.14471	265.37888	1264.05640				-836.81677	286.01959	868.89563	-725.59021	-8.57302	808.41388	-402.33017	-77.24799	1248.56836	-818.20343	278.88879	734.51459	-826.21112	254.70248	630.32391	-779.47296	145.45233	570.65051	-813.74841	249.87598	566.73901	-737.71216	15.37796	526.45105	-753.12616	206.76939	536.90765	-836.81665	262.83337	488.04089	-795.07281	34.59146	172.99257				-648.31274	-68.27312	161.08786	-720.83765	157.84741	220.84744	-772.53210	231.31999	201.57594	-605.01581	-72.82161	157.68819	-882.65460	296.15411	144.69444	-675.27374	51.90464	161.40681	-600.48340	28.44499	166.99966	-548.41125	-22.30284	162.60475	-518.16571	-72.92767	143.58397	-677.00641	174.52623	162.16193	-594.04163	217.63600	173.42830	-623.06927	306.16776	159.08658	-528.09589	304.05130	146.40579	-155.24229	100.26113	1428.90051							-799.00885	182.58617	181.35468	-556.89557	252.35934	163.94598	-659.96924	298.57968	156.97626				-743.34052	234.99107	1030.99756	-820.54236	-49.12284	477.34351	-762.87775	-23.20815	204.37047	-875.86609	-78.56408	141.03810	-814.14087	-77.45490	866.34515	-810.95490	-66.46494	750.40698	-799.30554	-36.95793	612.08820	-796.46155	-34.49157	563.76794	-726.51221	65.26505	218.78609	
